%TF.GenerationSoftware,KiCad,Pcbnew,10.0.6*%
%TF.CreationDate,2026-09-19T21:18:53+05:30*%
%TF.ProjectId,Blare.pcb,426c6172-652e-4706-9362-2e6b69636164,rev?*%
%TF.SameCoordinates,Original*%
%TF.FileFunction,Legend,Top*%
%TF.FilePolarity,Positive*%
%FSLAX46Y46*%
G04 Gerber Fmt 4.6, Leading zero omitted, Abs format (unit mm)*
G04 Created by KiCad (PCBNEW 10.0.6) date 2026-09-19 21:18:53*
%MOMM*%
%LPD*%
G01*
G04 APERTURE LIST*
%ADD10C,0.150000*%
%ADD11C,0.000000*%
%ADD12C,0.120000*%
G04 APERTURE END LIST*
D10*
X234738095Y-112804819D02*
X234738095Y-111804819D01*
X234738095Y-112281009D02*
X235309523Y-112281009D01*
X235309523Y-112804819D02*
X235309523Y-111804819D01*
X235738095Y-111900057D02*
X235785714Y-111852438D01*
X235785714Y-111852438D02*
X235880952Y-111804819D01*
X235880952Y-111804819D02*
X236119047Y-111804819D01*
X236119047Y-111804819D02*
X236214285Y-111852438D01*
X236214285Y-111852438D02*
X236261904Y-111900057D01*
X236261904Y-111900057D02*
X236309523Y-111995295D01*
X236309523Y-111995295D02*
X236309523Y-112090533D01*
X236309523Y-112090533D02*
X236261904Y-112233390D01*
X236261904Y-112233390D02*
X235690476Y-112804819D01*
X235690476Y-112804819D02*
X236309523Y-112804819D01*
X150738095Y-112804819D02*
X150738095Y-111804819D01*
X150738095Y-112281009D02*
X151309523Y-112281009D01*
X151309523Y-112804819D02*
X151309523Y-111804819D01*
X151690476Y-111804819D02*
X152309523Y-111804819D01*
X152309523Y-111804819D02*
X151976190Y-112185771D01*
X151976190Y-112185771D02*
X152119047Y-112185771D01*
X152119047Y-112185771D02*
X152214285Y-112233390D01*
X152214285Y-112233390D02*
X152261904Y-112281009D01*
X152261904Y-112281009D02*
X152309523Y-112376247D01*
X152309523Y-112376247D02*
X152309523Y-112614342D01*
X152309523Y-112614342D02*
X152261904Y-112709580D01*
X152261904Y-112709580D02*
X152214285Y-112757200D01*
X152214285Y-112757200D02*
X152119047Y-112804819D01*
X152119047Y-112804819D02*
X151833333Y-112804819D01*
X151833333Y-112804819D02*
X151738095Y-112757200D01*
X151738095Y-112757200D02*
X151690476Y-112709580D01*
X199856667Y-96083200D02*
X199999524Y-96130819D01*
X199999524Y-96130819D02*
X200237619Y-96130819D01*
X200237619Y-96130819D02*
X200332857Y-96083200D01*
X200332857Y-96083200D02*
X200380476Y-96035580D01*
X200380476Y-96035580D02*
X200428095Y-95940342D01*
X200428095Y-95940342D02*
X200428095Y-95845104D01*
X200428095Y-95845104D02*
X200380476Y-95749866D01*
X200380476Y-95749866D02*
X200332857Y-95702247D01*
X200332857Y-95702247D02*
X200237619Y-95654628D01*
X200237619Y-95654628D02*
X200047143Y-95607009D01*
X200047143Y-95607009D02*
X199951905Y-95559390D01*
X199951905Y-95559390D02*
X199904286Y-95511771D01*
X199904286Y-95511771D02*
X199856667Y-95416533D01*
X199856667Y-95416533D02*
X199856667Y-95321295D01*
X199856667Y-95321295D02*
X199904286Y-95226057D01*
X199904286Y-95226057D02*
X199951905Y-95178438D01*
X199951905Y-95178438D02*
X200047143Y-95130819D01*
X200047143Y-95130819D02*
X200285238Y-95130819D01*
X200285238Y-95130819D02*
X200428095Y-95178438D01*
X200761429Y-95130819D02*
X200999524Y-96130819D01*
X200999524Y-96130819D02*
X201190000Y-95416533D01*
X201190000Y-95416533D02*
X201380476Y-96130819D01*
X201380476Y-96130819D02*
X201618572Y-95130819D01*
X201904286Y-95130819D02*
X202523333Y-95130819D01*
X202523333Y-95130819D02*
X202190000Y-95511771D01*
X202190000Y-95511771D02*
X202332857Y-95511771D01*
X202332857Y-95511771D02*
X202428095Y-95559390D01*
X202428095Y-95559390D02*
X202475714Y-95607009D01*
X202475714Y-95607009D02*
X202523333Y-95702247D01*
X202523333Y-95702247D02*
X202523333Y-95940342D01*
X202523333Y-95940342D02*
X202475714Y-96035580D01*
X202475714Y-96035580D02*
X202428095Y-96083200D01*
X202428095Y-96083200D02*
X202332857Y-96130819D01*
X202332857Y-96130819D02*
X202047143Y-96130819D01*
X202047143Y-96130819D02*
X201951905Y-96083200D01*
X201951905Y-96083200D02*
X201904286Y-96035580D01*
X150238095Y-76804819D02*
X150238095Y-75804819D01*
X150238095Y-76281009D02*
X150809523Y-76281009D01*
X150809523Y-76804819D02*
X150809523Y-75804819D01*
X151714285Y-76138152D02*
X151714285Y-76804819D01*
X151476190Y-75757200D02*
X151238095Y-76471485D01*
X151238095Y-76471485D02*
X151857142Y-76471485D01*
X164006667Y-97033200D02*
X164149524Y-97080819D01*
X164149524Y-97080819D02*
X164387619Y-97080819D01*
X164387619Y-97080819D02*
X164482857Y-97033200D01*
X164482857Y-97033200D02*
X164530476Y-96985580D01*
X164530476Y-96985580D02*
X164578095Y-96890342D01*
X164578095Y-96890342D02*
X164578095Y-96795104D01*
X164578095Y-96795104D02*
X164530476Y-96699866D01*
X164530476Y-96699866D02*
X164482857Y-96652247D01*
X164482857Y-96652247D02*
X164387619Y-96604628D01*
X164387619Y-96604628D02*
X164197143Y-96557009D01*
X164197143Y-96557009D02*
X164101905Y-96509390D01*
X164101905Y-96509390D02*
X164054286Y-96461771D01*
X164054286Y-96461771D02*
X164006667Y-96366533D01*
X164006667Y-96366533D02*
X164006667Y-96271295D01*
X164006667Y-96271295D02*
X164054286Y-96176057D01*
X164054286Y-96176057D02*
X164101905Y-96128438D01*
X164101905Y-96128438D02*
X164197143Y-96080819D01*
X164197143Y-96080819D02*
X164435238Y-96080819D01*
X164435238Y-96080819D02*
X164578095Y-96128438D01*
X164911429Y-96080819D02*
X165149524Y-97080819D01*
X165149524Y-97080819D02*
X165340000Y-96366533D01*
X165340000Y-96366533D02*
X165530476Y-97080819D01*
X165530476Y-97080819D02*
X165768572Y-96080819D01*
X166673333Y-97080819D02*
X166101905Y-97080819D01*
X166387619Y-97080819D02*
X166387619Y-96080819D01*
X166387619Y-96080819D02*
X166292381Y-96223676D01*
X166292381Y-96223676D02*
X166197143Y-96318914D01*
X166197143Y-96318914D02*
X166101905Y-96366533D01*
X221006667Y-97033200D02*
X221149524Y-97080819D01*
X221149524Y-97080819D02*
X221387619Y-97080819D01*
X221387619Y-97080819D02*
X221482857Y-97033200D01*
X221482857Y-97033200D02*
X221530476Y-96985580D01*
X221530476Y-96985580D02*
X221578095Y-96890342D01*
X221578095Y-96890342D02*
X221578095Y-96795104D01*
X221578095Y-96795104D02*
X221530476Y-96699866D01*
X221530476Y-96699866D02*
X221482857Y-96652247D01*
X221482857Y-96652247D02*
X221387619Y-96604628D01*
X221387619Y-96604628D02*
X221197143Y-96557009D01*
X221197143Y-96557009D02*
X221101905Y-96509390D01*
X221101905Y-96509390D02*
X221054286Y-96461771D01*
X221054286Y-96461771D02*
X221006667Y-96366533D01*
X221006667Y-96366533D02*
X221006667Y-96271295D01*
X221006667Y-96271295D02*
X221054286Y-96176057D01*
X221054286Y-96176057D02*
X221101905Y-96128438D01*
X221101905Y-96128438D02*
X221197143Y-96080819D01*
X221197143Y-96080819D02*
X221435238Y-96080819D01*
X221435238Y-96080819D02*
X221578095Y-96128438D01*
X221911429Y-96080819D02*
X222149524Y-97080819D01*
X222149524Y-97080819D02*
X222340000Y-96366533D01*
X222340000Y-96366533D02*
X222530476Y-97080819D01*
X222530476Y-97080819D02*
X222768572Y-96080819D01*
X223578095Y-96414152D02*
X223578095Y-97080819D01*
X223340000Y-96033200D02*
X223101905Y-96747485D01*
X223101905Y-96747485D02*
X223720952Y-96747485D01*
X182276667Y-96457200D02*
X182419524Y-96504819D01*
X182419524Y-96504819D02*
X182657619Y-96504819D01*
X182657619Y-96504819D02*
X182752857Y-96457200D01*
X182752857Y-96457200D02*
X182800476Y-96409580D01*
X182800476Y-96409580D02*
X182848095Y-96314342D01*
X182848095Y-96314342D02*
X182848095Y-96219104D01*
X182848095Y-96219104D02*
X182800476Y-96123866D01*
X182800476Y-96123866D02*
X182752857Y-96076247D01*
X182752857Y-96076247D02*
X182657619Y-96028628D01*
X182657619Y-96028628D02*
X182467143Y-95981009D01*
X182467143Y-95981009D02*
X182371905Y-95933390D01*
X182371905Y-95933390D02*
X182324286Y-95885771D01*
X182324286Y-95885771D02*
X182276667Y-95790533D01*
X182276667Y-95790533D02*
X182276667Y-95695295D01*
X182276667Y-95695295D02*
X182324286Y-95600057D01*
X182324286Y-95600057D02*
X182371905Y-95552438D01*
X182371905Y-95552438D02*
X182467143Y-95504819D01*
X182467143Y-95504819D02*
X182705238Y-95504819D01*
X182705238Y-95504819D02*
X182848095Y-95552438D01*
X183181429Y-95504819D02*
X183419524Y-96504819D01*
X183419524Y-96504819D02*
X183610000Y-95790533D01*
X183610000Y-95790533D02*
X183800476Y-96504819D01*
X183800476Y-96504819D02*
X184038572Y-95504819D01*
X184371905Y-95600057D02*
X184419524Y-95552438D01*
X184419524Y-95552438D02*
X184514762Y-95504819D01*
X184514762Y-95504819D02*
X184752857Y-95504819D01*
X184752857Y-95504819D02*
X184848095Y-95552438D01*
X184848095Y-95552438D02*
X184895714Y-95600057D01*
X184895714Y-95600057D02*
X184943333Y-95695295D01*
X184943333Y-95695295D02*
X184943333Y-95790533D01*
X184943333Y-95790533D02*
X184895714Y-95933390D01*
X184895714Y-95933390D02*
X184324286Y-96504819D01*
X184324286Y-96504819D02*
X184943333Y-96504819D01*
X235738095Y-76304819D02*
X235738095Y-75304819D01*
X235738095Y-75781009D02*
X236309523Y-75781009D01*
X236309523Y-76304819D02*
X236309523Y-75304819D01*
X237309523Y-76304819D02*
X236738095Y-76304819D01*
X237023809Y-76304819D02*
X237023809Y-75304819D01*
X237023809Y-75304819D02*
X236928571Y-75447676D01*
X236928571Y-75447676D02*
X236833333Y-75542914D01*
X236833333Y-75542914D02*
X236738095Y-75590533D01*
D11*
%TO.C,*%
G36*
X154608618Y-94716767D02*
G01*
X154872770Y-94871343D01*
X155095954Y-95077733D01*
X155252651Y-95304751D01*
X155357077Y-95502615D01*
X155367672Y-98927942D01*
X155369493Y-99523404D01*
X155370970Y-100045849D01*
X155371997Y-100500413D01*
X155372471Y-100892233D01*
X155372289Y-101226444D01*
X155371347Y-101508184D01*
X155369541Y-101742588D01*
X155366767Y-101934793D01*
X155362923Y-102089934D01*
X155357904Y-102213150D01*
X155351607Y-102309575D01*
X155343927Y-102384346D01*
X155334762Y-102442599D01*
X155324008Y-102489471D01*
X155311561Y-102530098D01*
X155297318Y-102569616D01*
X155294011Y-102578462D01*
X155154686Y-102841606D01*
X154951389Y-103066182D01*
X154692507Y-103243154D01*
X154662974Y-103258341D01*
X154426286Y-103376615D01*
X151023066Y-103374579D01*
X150428668Y-103374175D01*
X149907297Y-103373643D01*
X149453824Y-103372872D01*
X149063124Y-103371749D01*
X148730067Y-103370160D01*
X148449528Y-103367993D01*
X148216378Y-103365134D01*
X148025490Y-103361472D01*
X147871737Y-103356892D01*
X147749991Y-103351283D01*
X147655125Y-103344532D01*
X147582012Y-103336525D01*
X147525524Y-103327149D01*
X147480534Y-103316292D01*
X147441915Y-103303842D01*
X147418856Y-103295247D01*
X147159628Y-103155434D01*
X146936616Y-102955346D01*
X146765874Y-102710215D01*
X146734030Y-102645433D01*
X146623384Y-102401408D01*
X146623384Y-99000000D01*
X146623384Y-98815727D01*
X147763031Y-98815727D01*
X147769676Y-99279457D01*
X147843163Y-99738599D01*
X147983554Y-100185599D01*
X148190907Y-100612901D01*
X148465283Y-101012950D01*
X148694094Y-101269530D01*
X149037306Y-101573735D01*
X149407658Y-101824083D01*
X149709207Y-101976027D01*
X149875552Y-102043178D01*
X149988421Y-102076896D01*
X150063782Y-102079602D01*
X150117604Y-102053716D01*
X150132492Y-102040184D01*
X150158069Y-101976196D01*
X150174788Y-101857158D01*
X150179401Y-101737338D01*
X150179418Y-101481384D01*
X149810437Y-101481384D01*
X149638070Y-101480453D01*
X149523461Y-101474028D01*
X149446214Y-101456661D01*
X149385935Y-101422903D01*
X149322228Y-101367308D01*
X149298414Y-101344615D01*
X149195434Y-101229268D01*
X149089603Y-101084937D01*
X149038459Y-101002767D01*
X148938678Y-100855746D01*
X148814823Y-100709845D01*
X148749388Y-100646148D01*
X148631777Y-100527909D01*
X148581806Y-100440816D01*
X148599885Y-100386778D01*
X148686426Y-100367704D01*
X148689577Y-100367692D01*
X148855222Y-100376714D01*
X148978378Y-100412491D01*
X149082540Y-100488093D01*
X149191202Y-100616588D01*
X149228064Y-100667227D01*
X149362877Y-100838231D01*
X149486841Y-100948280D01*
X149618690Y-101008759D01*
X149777157Y-101031050D01*
X149828320Y-101032000D01*
X150013270Y-101016741D01*
X150130955Y-100971744D01*
X150178594Y-100898181D01*
X150179530Y-100884086D01*
X150199196Y-100806992D01*
X150247117Y-100706819D01*
X150254740Y-100693974D01*
X150329803Y-100570872D01*
X150147132Y-100525536D01*
X149794059Y-100405115D01*
X149493142Y-100234414D01*
X149248660Y-100018049D01*
X149064893Y-99760635D01*
X148946118Y-99466786D01*
X148898573Y-99178911D01*
X148899959Y-98935206D01*
X148930301Y-98681051D01*
X148984611Y-98442085D01*
X149057898Y-98243945D01*
X149093176Y-98179006D01*
X149134115Y-98100904D01*
X149160262Y-98012002D01*
X149175076Y-97892032D01*
X149182015Y-97720724D01*
X149183136Y-97651846D01*
X149188668Y-97437552D01*
X149201392Y-97289587D01*
X149225180Y-97196192D01*
X149263903Y-97145614D01*
X149321431Y-97126095D01*
X149356832Y-97124307D01*
X149480891Y-97141953D01*
X149645067Y-97188299D01*
X149821511Y-97253460D01*
X149982376Y-97327550D01*
X150065516Y-97375894D01*
X150147806Y-97426356D01*
X150215268Y-97448094D01*
X150297253Y-97444148D01*
X150423110Y-97417555D01*
X150436797Y-97414342D01*
X150668223Y-97378131D01*
X150942350Y-97363254D01*
X151226684Y-97369731D01*
X151488735Y-97397585D01*
X151574898Y-97413603D01*
X151709753Y-97440328D01*
X151796715Y-97446187D01*
X151864021Y-97427990D01*
X151939908Y-97382548D01*
X151957973Y-97370335D01*
X152098760Y-97291401D01*
X152271940Y-97217674D01*
X152448387Y-97159571D01*
X152598978Y-97127508D01*
X152645842Y-97124307D01*
X152717812Y-97134233D01*
X152761617Y-97177776D01*
X152796495Y-97275584D01*
X152800570Y-97290384D01*
X152822174Y-97425721D01*
X152830164Y-97604425D01*
X152825421Y-97757682D01*
X152818259Y-97926838D01*
X152825332Y-98033520D01*
X152848039Y-98092348D01*
X152858484Y-98103165D01*
X152935260Y-98206822D01*
X153000592Y-98370468D01*
X153051990Y-98576454D01*
X153086967Y-98807132D01*
X153103032Y-99044850D01*
X153097697Y-99271961D01*
X153068472Y-99470813D01*
X153057349Y-99513334D01*
X152942621Y-99773190D01*
X152760830Y-100011171D01*
X152521977Y-100218400D01*
X152236062Y-100386001D01*
X151952482Y-100493951D01*
X151669125Y-100577316D01*
X151740220Y-100677658D01*
X151768499Y-100729607D01*
X151789890Y-100802849D01*
X151806050Y-100910130D01*
X151818634Y-101064195D01*
X151829298Y-101277792D01*
X151834023Y-101399797D01*
X151844393Y-101618667D01*
X151857894Y-101807881D01*
X151873217Y-101953778D01*
X151889053Y-102042698D01*
X151897496Y-102062357D01*
X151963239Y-102076766D01*
X152081936Y-102052715D01*
X152241350Y-101994854D01*
X152429244Y-101907832D01*
X152633382Y-101796297D01*
X152694942Y-101759377D01*
X153094271Y-101471833D01*
X153435457Y-101138486D01*
X153717635Y-100766656D01*
X153939939Y-100363663D01*
X154101503Y-99936830D01*
X154201462Y-99493476D01*
X154238951Y-99040923D01*
X154213104Y-98586492D01*
X154123055Y-98137504D01*
X153967939Y-97701280D01*
X153746890Y-97285140D01*
X153459043Y-96896406D01*
X153291202Y-96716003D01*
X152913378Y-96391081D01*
X152503271Y-96133223D01*
X152068353Y-95942467D01*
X151616096Y-95818852D01*
X151153971Y-95762416D01*
X150689449Y-95773197D01*
X150230004Y-95851233D01*
X149783106Y-95996562D01*
X149356227Y-96209222D01*
X148956839Y-96489251D01*
X148730355Y-96692723D01*
X148403683Y-97066053D01*
X148143555Y-97472575D01*
X147950030Y-97904731D01*
X147823169Y-98354967D01*
X147763031Y-98815727D01*
X146623384Y-98815727D01*
X146623384Y-95598591D01*
X146734030Y-95354566D01*
X146891844Y-95097621D01*
X147106797Y-94884844D01*
X147364673Y-94729549D01*
X147429948Y-94702841D01*
X147468891Y-94688925D01*
X147509954Y-94676735D01*
X147558302Y-94666158D01*
X147619102Y-94657079D01*
X147697519Y-94649385D01*
X147798718Y-94642960D01*
X147927867Y-94637690D01*
X148090131Y-94633461D01*
X148290675Y-94630159D01*
X148534666Y-94627669D01*
X148827269Y-94625877D01*
X149173651Y-94624669D01*
X149578977Y-94623930D01*
X150048413Y-94623546D01*
X150587125Y-94623403D01*
X151019890Y-94623384D01*
X154397464Y-94623384D01*
X154608618Y-94716767D01*
G37*
%TO.C,SW3*%
D12*
X196435000Y-97515000D02*
X210405000Y-97515000D01*
X196435000Y-111485000D02*
X196435000Y-97515000D01*
X210405000Y-97515000D02*
X210405000Y-111485000D01*
X210405000Y-111485000D02*
X196435000Y-111485000D01*
%TO.C,SW1*%
X158355000Y-97515000D02*
X172325000Y-97515000D01*
X158355000Y-111485000D02*
X158355000Y-97515000D01*
X172325000Y-97515000D02*
X172325000Y-111485000D01*
X172325000Y-111485000D02*
X158355000Y-111485000D01*
%TO.C,SW4*%
X215355000Y-97515000D02*
X229325000Y-97515000D01*
X215355000Y-111485000D02*
X215355000Y-97515000D01*
X229325000Y-97515000D02*
X229325000Y-111485000D01*
X229325000Y-111485000D02*
X215355000Y-111485000D01*
%TO.C,SW2*%
X177435000Y-97515000D02*
X191405000Y-97515000D01*
X177435000Y-111485000D02*
X177435000Y-97515000D01*
X191405000Y-97515000D02*
X191405000Y-111485000D01*
X191405000Y-111485000D02*
X177435000Y-111485000D01*
%TD*%
M02*
