%TF.GenerationSoftware,KiCad,Pcbnew,10.0.6*%
%TF.CreationDate,2026-09-19T21:18:53+05:30*%
%TF.ProjectId,Blare.pcb,426c6172-652e-4706-9362-2e6b69636164,rev?*%
%TF.SameCoordinates,Original*%
%TF.FileFunction,Copper,L1,Top*%
%TF.FilePolarity,Positive*%
%FSLAX46Y46*%
G04 Gerber Fmt 4.6, Leading zero omitted, Abs format (unit mm)*
G04 Created by KiCad (PCBNEW 10.0.6) date 2026-09-19 21:18:53*
%MOMM*%
%LPD*%
G01*
G04 APERTURE LIST*
%TA.AperFunction,ComponentPad*%
%ADD10C,2.200000*%
%TD*%
%TA.AperFunction,ComponentPad*%
%ADD11R,2.000000X2.000000*%
%TD*%
%TA.AperFunction,ComponentPad*%
%ADD12C,2.000000*%
%TD*%
%TA.AperFunction,ComponentPad*%
%ADD13C,1.524000*%
%TD*%
%TA.AperFunction,ComponentPad*%
%ADD14R,1.700000X1.700000*%
%TD*%
%TA.AperFunction,ComponentPad*%
%ADD15C,1.700000*%
%TD*%
%TA.AperFunction,ViaPad*%
%ADD16C,0.600000*%
%TD*%
%TA.AperFunction,Conductor*%
%ADD17C,0.200000*%
%TD*%
G04 APERTURE END LIST*
D10*
%TO.P,SW3,1,1_1*%
%TO.N,GND*%
X205960000Y-99420000D03*
%TO.P,SW3,2,2_2*%
%TO.N,Net-(U1-D2)*%
X199610000Y-101960000D03*
%TD*%
%TO.P,SW1,1,1_1*%
%TO.N,GND*%
X167880000Y-99420000D03*
%TO.P,SW1,2,2_2*%
%TO.N,Net-(U1-D0)*%
X161530000Y-101960000D03*
%TD*%
%TO.P,SW4,1,1_1*%
%TO.N,GND*%
X224880000Y-99420000D03*
%TO.P,SW4,2,2_2*%
%TO.N,Net-(U1-D3)*%
X218530000Y-101960000D03*
%TD*%
%TO.P,SW2,1,1_1*%
%TO.N,GND*%
X186960000Y-99420000D03*
%TO.P,SW2,2,2_2*%
%TO.N,Net-(U1-D1)*%
X180610000Y-101960000D03*
%TD*%
D11*
%TO.P,BZ1,1,+_1*%
%TO.N,Net-(BZ1-+)*%
X223500000Y-84200000D03*
D12*
%TO.P,BZ1,2,-_2*%
%TO.N,GND*%
X223500000Y-91800000D03*
%TD*%
D13*
%TO.P,U1,1,D0_1*%
%TO.N,Net-(U1-D0)*%
X198620000Y-76880000D03*
%TO.P,U1,2,D1_2*%
%TO.N,Net-(U1-D1)*%
X198620000Y-79420000D03*
%TO.P,U1,3,D2_3*%
%TO.N,Net-(U1-D2)*%
X198620000Y-81960000D03*
%TO.P,U1,4,D3_4*%
%TO.N,Net-(U1-D3)*%
X198620000Y-84500000D03*
%TO.P,U1,5,D4_5*%
%TO.N,/DC*%
X198620000Y-87040000D03*
%TO.P,U1,6,D5_6*%
%TO.N,/CS*%
X198620000Y-89580000D03*
%TO.P,U1,7,D6_7*%
%TO.N,/BL*%
X198620000Y-92120000D03*
%TO.P,U1,8,D7_8*%
%TO.N,Net-(BZ1-+)*%
X183380000Y-92120000D03*
%TO.P,U1,9,D8_9*%
%TO.N,/RST*%
X183380000Y-89580000D03*
%TO.P,U1,10,D9/BOOT_10*%
%TO.N,/SCL*%
X183380000Y-87040000D03*
%TO.P,U1,11,D10_11*%
%TO.N,/SDA*%
X183380000Y-84500000D03*
%TO.P,U1,12,3V3_OUT_12*%
%TO.N,+3V3*%
X183380000Y-81960000D03*
%TO.P,U1,13,GND_13*%
%TO.N,GND*%
X183380000Y-79420000D03*
%TO.P,U1,14,VBUS_14*%
%TO.N,unconnected-(U1-VBUS-Pad14)*%
X183380000Y-76880000D03*
%TD*%
D14*
%TO.P,J1,1,Pin_1_1*%
%TO.N,GND*%
X174500000Y-87000000D03*
D15*
%TO.P,J1,2,Pin_2_2*%
%TO.N,+3V3*%
X171960000Y-87000000D03*
%TO.P,J1,3,Pin_3_3*%
%TO.N,/SCL*%
X169420000Y-87000000D03*
%TO.P,J1,4,Pin_4_4*%
%TO.N,/SDA*%
X166880000Y-87000000D03*
%TO.P,J1,5,Pin_5_5*%
%TO.N,/RST*%
X164340000Y-87000000D03*
%TO.P,J1,6,Pin_6_6*%
%TO.N,/DC*%
X161800000Y-87000000D03*
%TO.P,J1,7,Pin_7_7*%
%TO.N,/CS*%
X159260000Y-87000000D03*
%TO.P,J1,8,Pin_8_8*%
%TO.N,/BL*%
X156720000Y-87000000D03*
%TD*%
D16*
%TO.N,Net-(U1-D2)*%
X204500000Y-91500000D03*
%TO.N,Net-(U1-D1)*%
X193000000Y-92000000D03*
X196000000Y-80000000D03*
%TO.N,/SCL*%
X179000000Y-83900000D03*
X177000000Y-83000000D03*
%TD*%
%TO.N,GND*%
D17*
X183380000Y-79420000D02*
X182080000Y-79420000D01*
X183380000Y-79420000D02*
X183460000Y-79500000D01*
X182080000Y-79420000D02*
X174500000Y-87000000D01*
%TO.N,Net-(U1-D2)*%
X204500000Y-95500000D02*
X204500000Y-91500000D01*
X199610000Y-100390000D02*
X204500000Y-95500000D01*
X199610000Y-101960000D02*
X199610000Y-100390000D01*
%TO.N,Net-(U1-D3)*%
X218530000Y-101960000D02*
X216080000Y-101960000D01*
X216080000Y-101960000D02*
X198620000Y-84500000D01*
%TO.N,Net-(U1-D1)*%
X196000000Y-80000000D02*
X196580000Y-79420000D01*
X193000000Y-95822105D02*
X193000000Y-92000000D01*
X186862105Y-101960000D02*
X193000000Y-95822105D01*
X180610000Y-101960000D02*
X186862105Y-101960000D01*
X196580000Y-79420000D02*
X198620000Y-79420000D01*
%TO.N,/DC*%
X198620000Y-87040000D02*
X197510000Y-88150000D01*
X162950000Y-88150000D02*
X161800000Y-87000000D01*
X197510000Y-88150000D02*
X162950000Y-88150000D01*
%TO.N,/CS*%
X162902000Y-90642000D02*
X159260000Y-87000000D01*
X197558000Y-90642000D02*
X162902000Y-90642000D01*
X198620000Y-89580000D02*
X197558000Y-90642000D01*
%TO.N,/RST*%
X183380000Y-89580000D02*
X162753654Y-89580000D01*
X161323654Y-85850000D02*
X163190000Y-85850000D01*
X160650000Y-86523654D02*
X161323654Y-85850000D01*
X163190000Y-85850000D02*
X164340000Y-87000000D01*
X160650000Y-87476346D02*
X160650000Y-86523654D01*
X162753654Y-89580000D02*
X160650000Y-87476346D01*
%TO.N,/SCL*%
X180240000Y-83900000D02*
X183380000Y-87040000D01*
X173420000Y-83000000D02*
X177000000Y-83000000D01*
X179000000Y-83900000D02*
X180240000Y-83900000D01*
X169420000Y-87000000D02*
X173420000Y-83000000D01*
%TD*%
M02*
