%TF.GenerationSoftware,KiCad,Pcbnew,10.0.6*%
%TF.CreationDate,2026-09-19T21:18:53+05:30*%
%TF.ProjectId,Blare.pcb,426c6172-652e-4706-9362-2e6b69636164,rev?*%
%TF.SameCoordinates,Original*%
%TF.FileFunction,Soldermask,Top*%
%TF.FilePolarity,Negative*%
%FSLAX46Y46*%
G04 Gerber Fmt 4.6, Leading zero omitted, Abs format (unit mm)*
G04 Created by KiCad (PCBNEW 10.0.6) date 2026-09-19 21:18:53*
%MOMM*%
%LPD*%
G01*
G04 APERTURE LIST*
%ADD10C,3.200000*%
%ADD11C,1.700000*%
%ADD12C,4.000000*%
%ADD13C,2.200000*%
%ADD14R,2.000000X2.000000*%
%ADD15C,2.000000*%
%ADD16C,1.524000*%
%ADD17R,1.700000X1.700000*%
G04 APERTURE END LIST*
D10*
%TO.C,H2*%
X235500000Y-116500000D03*
%TD*%
%TO.C,H3*%
X151500000Y-116500000D03*
%TD*%
D11*
%TO.C,SW3*%
X198340000Y-104500000D03*
D12*
X203420000Y-104500000D03*
D11*
X208500000Y-104500000D03*
D13*
X205960000Y-99420000D03*
X199610000Y-101960000D03*
%TD*%
D10*
%TO.C,H4*%
X151000000Y-80500000D03*
%TD*%
D11*
%TO.C,SW1*%
X160260000Y-104500000D03*
D12*
X165340000Y-104500000D03*
D11*
X170420000Y-104500000D03*
D13*
X167880000Y-99420000D03*
X161530000Y-101960000D03*
%TD*%
D11*
%TO.C,SW4*%
X217260000Y-104500000D03*
D12*
X222340000Y-104500000D03*
D11*
X227420000Y-104500000D03*
D13*
X224880000Y-99420000D03*
X218530000Y-101960000D03*
%TD*%
D11*
%TO.C,SW2*%
X179340000Y-104500000D03*
D12*
X184420000Y-104500000D03*
D11*
X189500000Y-104500000D03*
D13*
X186960000Y-99420000D03*
X180610000Y-101960000D03*
%TD*%
D10*
%TO.C,H1*%
X236500000Y-80000000D03*
%TD*%
D14*
%TO.C,BZ1*%
X223500000Y-84200000D03*
D15*
X223500000Y-91800000D03*
%TD*%
D16*
%TO.C,U1*%
X198620000Y-76880000D03*
X198620000Y-79420000D03*
X198620000Y-81960000D03*
X198620000Y-84500000D03*
X198620000Y-87040000D03*
X198620000Y-89580000D03*
X198620000Y-92120000D03*
X183380000Y-92120000D03*
X183380000Y-89580000D03*
X183380000Y-87040000D03*
X183380000Y-84500000D03*
X183380000Y-81960000D03*
X183380000Y-79420000D03*
X183380000Y-76880000D03*
%TD*%
D17*
%TO.C,J1*%
X174500000Y-87000000D03*
D11*
X171960000Y-87000000D03*
X169420000Y-87000000D03*
X166880000Y-87000000D03*
X164340000Y-87000000D03*
X161800000Y-87000000D03*
X159260000Y-87000000D03*
X156720000Y-87000000D03*
%TD*%
M02*
