M48
; DRILL file KiCad 10.0.6 date 2026-09-19T21:18:50
; FORMAT={-:-/ absolute / metric / decimal}
; #@! TF.CreationDate,2026-09-19T21:18:50+05:30
; #@! TF.GenerationSoftware,Kicad,Pcbnew,10.0.6
; #@! TF.FileFunction,Plated,1,2,PTH
FMAT,2
METRIC
; #@! TA.AperFunction,Plated,PTH,ViaDrill
T1C0.300
; #@! TA.AperFunction,Plated,PTH,ComponentDrill
T2C0.889
; #@! TA.AperFunction,Plated,PTH,ComponentDrill
T3C1.000
; #@! TA.AperFunction,Plated,PTH,ComponentDrill
T4C1.500
%
G90
G05
T1
X177.0Y-83.0
X179.0Y-83.9
X193.0Y-92.0
X196.0Y-80.0
X204.5Y-91.5
T2
X183.38Y-76.88
X183.38Y-79.42
X183.38Y-81.96
X183.38Y-84.5
X183.38Y-87.04
X183.38Y-89.58
X183.38Y-92.12
X198.62Y-76.88
X198.62Y-79.42
X198.62Y-81.96
X198.62Y-84.5
X198.62Y-87.04
X198.62Y-89.58
X198.62Y-92.12
T3
X156.72Y-87.0
X159.26Y-87.0
X161.8Y-87.0
X164.34Y-87.0
X166.88Y-87.0
X169.42Y-87.0
X171.96Y-87.0
X174.5Y-87.0
X223.5Y-84.2
X223.5Y-91.8
T4
X161.53Y-101.96
X167.88Y-99.42
X180.61Y-101.96
X186.96Y-99.42
X199.61Y-101.96
X205.96Y-99.42
X218.53Y-101.96
X224.88Y-99.42
M30
